<?xml version="1.0" encoding="iso-8859-1"?>
<!-- Generator: Adobe Illustrator 19.0.0, SVG Export Plug-In . SVG Version: 6.00 Build 0)  -->
<svg xmlns="http://www.w3.org/2000/svg" xmlns:xlink="http://www.w3.org/1999/xlink" version="1.1" id="Capa_1" x="0px" y="0px" viewBox="0 0 60 60" style="enable-background:new 0 0 60 60;" xml:space="preserve" width="512px" height="512px">
<g>
	<g>
		<path d="M59,2H43c-0.6,0-1,0.4-1,1v17H18V3c0-0.6-0.4-1-1-1H1C0.4,2,0,2.4,0,3v54c0,0.6,0.4,1,1,1h16h26h16c0.6,0,1-0.4,1-1V3    C60,2.4,59.6,2,59,2z M42,22v26H18V22H42z M2,8h9V6H2V4h14v17v28v7H2V8z M18,50h24v6H18V50z M58,56H44v-7V21V8h9V6h-9V4h14V56z" fill="#4d4d4d"/>
		<path d="M9,11c-2.8,0-5,2.2-5,5s2.2,5,5,5s5-2.2,5-5S11.8,11,9,11z M9,19c-1.7,0-3-1.3-3-3s1.3-3,3-3s3,1.3,3,3S10.7,19,9,19z" fill="#4d4d4d"/>
		<path d="M9,27c-2.8,0-5,2.2-5,5s2.2,5,5,5s5-2.2,5-5S11.8,27,9,27z M9,35c-1.7,0-3-1.3-3-3s1.3-3,3-3s3,1.3,3,3S10.7,35,9,35z" fill="#4d4d4d"/>
		<path d="M9,43c-2.8,0-5,2.2-5,5s2.2,5,5,5s5-2.2,5-5S11.8,43,9,43z M9,51c-1.7,0-3-1.3-3-3s1.3-3,3-3s3,1.3,3,3S10.7,51,9,51z" fill="#4d4d4d"/>
		<path d="M46,16c0,2.8,2.2,5,5,5s5-2.2,5-5s-2.2-5-5-5S46,13.2,46,16z M54,16c0,1.7-1.3,3-3,3s-3-1.3-3-3s1.3-3,3-3S54,14.3,54,16z    " fill="#4d4d4d"/>
		<path d="M51,27c-2.8,0-5,2.2-5,5s2.2,5,5,5s5-2.2,5-5S53.8,27,51,27z M51,35c-1.7,0-3-1.3-3-3s1.3-3,3-3s3,1.3,3,3S52.7,35,51,35z    " fill="#4d4d4d"/>
		<path d="M51,43c-2.8,0-5,2.2-5,5s2.2,5,5,5s5-2.2,5-5S53.8,43,51,43z M51,51c-1.7,0-3-1.3-3-3s1.3-3,3-3s3,1.3,3,3S52.7,51,51,51z    " fill="#4d4d4d"/>
		<rect x="8" y="23" width="2" height="2" fill="#4d4d4d"/>
		<rect x="8" y="39" width="2" height="2" fill="#4d4d4d"/>
		<rect x="50" y="39" width="2" height="2" fill="#4d4d4d"/>
		<rect x="50" y="23" width="2" height="2" fill="#4d4d4d"/>
		<rect x="20" y="52" width="20" height="2" fill="#4d4d4d"/>
		<path d="M21,30h18c0.6,0,1-0.4,1-1v-4c0-0.6-0.4-1-1-1H21c-0.6,0-1,0.4-1,1v4C20,29.6,20.4,30,21,30z M22,26h16v2H22V26z" fill="#4d4d4d"/>
		<rect x="20" y="32" width="12" height="2" fill="#4d4d4d"/>
		<rect x="34" y="32" width="2" height="2" fill="#4d4d4d"/>
		<polygon points="40,36 40,34 38,34 38,36 20,36 20,38 40,38   " fill="#4d4d4d"/>
		<path d="M37,40c-1.7,0-3,1.3-3,3s1.3,3,3,3s3-1.3,3-3S38.7,40,37,40z M37,44c-0.6,0-1-0.4-1-1s0.4-1,1-1s1,0.4,1,1S37.6,44,37,44z    " fill="#4d4d4d"/>
		<path d="M29,40c-1.7,0-3,1.3-3,3s1.3,3,3,3s3-1.3,3-3S30.7,40,29,40z M29,44c-0.6,0-1-0.4-1-1s0.4-1,1-1s1,0.4,1,1S29.6,44,29,44z    " fill="#4d4d4d"/>
		<rect x="20" y="41" width="4" height="2" fill="#4d4d4d"/>
		<rect x="20" y="44" width="4" height="2" fill="#4d4d4d"/>
	</g>
</g>
<g>
</g>
<g>
</g>
<g>
</g>
<g>
</g>
<g>
</g>
<g>
</g>
<g>
</g>
<g>
</g>
<g>
</g>
<g>
</g>
<g>
</g>
<g>
</g>
<g>
</g>
<g>
</g>
<g>
</g>
</svg>
