<?xml version="1.0" encoding="iso-8859-1"?>
<!-- Generator: Adobe Illustrator 19.0.0, SVG Export Plug-In . SVG Version: 6.00 Build 0)  -->
<svg xmlns="http://www.w3.org/2000/svg" xmlns:xlink="http://www.w3.org/1999/xlink" version="1.1" id="Layer_1" x="0px" y="0px" viewBox="0 0 512 512" style="enable-background:new 0 0 512 512;" xml:space="preserve" width="512px" height="512px">
<g>
	<g>
		<path d="M455.375,253.515l-61.44-245.76C392.795,3.2,388.7,0,384,0H128c-4.7,0-8.795,3.2-9.935,7.755l-61.44,245.76    c-0.765,3.06-0.075,6.3,1.865,8.785c1.94,2.485,4.915,3.94,8.07,3.94h71.68v133.12h20.48V266.24h286.72    c3.155,0,6.13-1.455,8.07-3.94C455.45,259.815,456.14,256.575,455.375,253.515z M158.72,245.76h-20.48H79.675l56.32-225.28h240.01    l56.32,225.28H158.72z" fill="#4d4d4d"/>
	</g>
</g>
<g>
	<g>
		<polygon points="261.12,491.52 261.12,296.96 240.64,296.96 240.64,491.52 209.92,491.52 209.92,512 291.84,512 291.84,491.52       " fill="#4d4d4d"/>
	</g>
</g>
<g>
</g>
<g>
</g>
<g>
</g>
<g>
</g>
<g>
</g>
<g>
</g>
<g>
</g>
<g>
</g>
<g>
</g>
<g>
</g>
<g>
</g>
<g>
</g>
<g>
</g>
<g>
</g>
<g>
</g>
</svg>
