<?xml version="1.0" encoding="iso-8859-1"?>
<!-- Generator: Adobe Illustrator 19.0.0, SVG Export Plug-In . SVG Version: 6.00 Build 0)  -->
<svg version="1.1" id="Layer_1" xmlns="http://www.w3.org/2000/svg" xmlns:xlink="http://www.w3.org/1999/xlink" x="0px" y="0px"
	 viewBox="0 0 512 512" style="enable-background:new 0 0 512 512;" xml:space="preserve">
<path style="fill:#E8EDEE;" d="M467.862,512H44.138C19.421,512,0,492.579,0,467.862V44.138C0,19.421,19.421,0,44.138,0h423.724
	C492.579,0,512,19.421,512,44.138v423.724C512,492.579,492.579,512,467.862,512"/>
<path style="fill:#CBD4D8;" d="M57.379,476.69c-12.359,0-22.069-9.71-22.069-22.069V57.379c0-12.359,9.71-22.069,22.069-22.069
	h397.241c12.359,0,22.069,9.71,22.069,22.069v397.241c0,12.359-9.71,22.069-22.069,22.069H57.379z"/>
<path style="fill:#E8EDEE;" d="M132.414,379.586h247.172V132.414H132.414V379.586z"/>
<g>
	<path style="fill:#38454F;" d="M194.207,229.517h35.31v-52.966h-35.31V229.517z"/>
	<path style="fill:#38454F;" d="M282.483,229.517h35.31v-52.966h-35.31V229.517z"/>
	<path style="fill:#38454F;" d="M273.655,335.448h-35.31v-35.31c0-9.71,7.945-17.655,17.655-17.655
		c9.71,0,17.655,7.945,17.655,17.655V335.448z"/>
</g>
<g>
</g>
<g>
</g>
<g>
</g>
<g>
</g>
<g>
</g>
<g>
</g>
<g>
</g>
<g>
</g>
<g>
</g>
<g>
</g>
<g>
</g>
<g>
</g>
<g>
</g>
<g>
</g>
<g>
</g>
</svg>
